#!OML:ASF X:\für Bonn\!DataBase\2005_08_10_Bjorn_Final\c3d\bjorn.ASF
:FULLY-SPECIFIED
:DEGREES
310
root 0.43891 4.51504 20.8614 -248.087 -2.38334 -533.813
lowerback 53.0728 4.85664 12.8528
upperback 23.1181 -1.53029 5.52704
thorax 5.94584 -6.45343 0.0404632
lowerneck -6.0336 7.97984 -8.23713
upperneck 4.77834 11.0688 -16.9275
head 2.97633 4.09038 -3.34659
rclavicle 3.73715e-014 -1.59028e-015
rhumerus -115.257 -48.1418 25.6185
rradius 10.9137
rwrist 42.9911
rhand -10.7155 3.45252
rfingers 7.12502
rthumb 15.2946 -25.962
lclavicle 3.73715e-014 -1.59028e-015
lhumerus -43.1897 5.26529 83.0227
lradius 17.937
lwrist 9.33273
lhand -26.5742 -351.732
lfingers 7.12502
lthumb -0.00878897 38.2477
rfemur -57.8622 -46.1932 -5.18804
rtibia 128.537
rfoot 12.6805 27.8436
rtoes 5.28157
lfemur -64.1282 25.7877 11.8853
ltibia 138.636
lfoot -2.94594 -20.8455
ltoes -20.2455
311
root 0.442582 4.50534 20.8268 -248.225 -2.50814 -533.642
lowerback 53.1473 4.81829 12.8932
upperback 23.1267 -1.56398 5.59213
thorax 5.95602 -6.48439 0.105672
lowerneck -5.89473 8.17954 -8.7194
upperneck 4.43755 11.2544 -16.4739
head 3.06912 4.24165 -3.55495
rclavicle 4.07012e-014 7.95139e-015
rhumerus -117.402 -47.2113 28.6281
rradius 10.8044
rwrist 45.4767
rhand -10.7152 3.71204
rfingers 7.12502
rthumb 15.2949 -25.7024
lclavicle 4.07012e-014 7.95139e-015
lhumerus -43.2174 5.13298 83.0375
lradius 17.9589
lwrist 9.52332
lhand -26.5064 -351.811
lfingers 7.12502
lthumb 0.0566329 38.169
rfemur -57.5014 -46.4739 -5.66685
rtibia 128.755
rfoot 12.4672 28.139
rtoes 5.0486
lfemur -64.7563 23.4255 10.2583
ltibia 137.629
lfoot -0.317697 -19.7278
ltoes -17.3733
312
root 0.445488 4.49382 20.7914 -248.37 -2.61636 -533.471
lowerback 53.2438 4.77808 12.9415
upperback 23.1114 -1.58224 5.67146
thorax 5.93716 -6.50703 0.182798
lowerneck -5.72659 8.38403 -9.01357
upperneck 4.29039 11.4831 -16.4818
head 2.97766 4.36492 -3.50316
rclavicle 4.44781e-014 6.95746e-015
rhumerus -118.598 -46.4947 30.397
rradius 10.7275
rwrist 47.1345
rhand -10.7327 3.99025
rfingers 7.12502
rthumb 15.2779 -25.4255
lclavicle 4.44781e-014 6.95746e-015
lhumerus -43.293 4.97051 83.0786
lradius 17.99
lwrist 9.63988
lhand -26.4278 -351.943
lfingers 7.12502
lthumb 0.132529 38.0363
rfemur -57.148 -46.7369 -6.14185
rtibia 128.988
rfoot 12.2939 28.3826
rtoes 4.90314
lfemur -65.2433 21.3219 8.7844
ltibia 136.648
lfoot 1.95478 -18.4001
ltoes -14.6044
313
root 0.448563 4.48027 20.7558 -248.528 -2.73787 -533.306
lowerback 53.3499 4.73536 12.9967
upperback 23.1026 -1.6044 5.74244
thorax 5.92599 -6.53176 0.248672
lowerneck -5.54663 8.57868 -9.30213
upperneck 4.11237 11.6936 -16.4436
head 2.86849 4.48832 -3.43813
rclavicle 1.62506e-014 -5.50634e-014
rhumerus -118.999 -46.0727 31.0669
rradius 10.6691
rwrist 47.995
rhand -10.6962 4.23429
rfingers 7.12502
rthumb 15.3132 -25.1788
lclavicle 1.62506e-014 -5.50634e-014
lhumerus -43.3755 4.74237 83.1529
lradius 18.0511
lwrist 9.81727
lhand -26.4422 -352.043
lfingers 7.12502
lthumb 0.118662 37.9363
rfemur -56.8036 -47.0009 -6.63564
rtibia 129.236
rfoot 12.0491 28.6666
rtoes 4.56654
lfemur -65.6226 19.4504 7.42684
ltibia 135.741
lfoot 3.80198 -16.9619
ltoes -12.0904
314
root 0.450903 4.46367 20.7181 -248.682 -2.83934 -533.119
lowerback 53.4191 4.68326 13.0948
upperback 23.1165 -1.63127 5.82412
thorax 5.95027 -6.55697 0.302964
lowerneck -5.40263 8.76582 -9.57099
upperneck 3.95608 11.9041 -16.3886
head 2.77336 4.61091 -3.37043
rclavicle 5.02428e-014 1.66979e-014
rhumerus -118.666 -45.9751 30.6686
rradius 10.6523
rwrist 48.0387
rhand -10.6619 4.45715
rfingers 7.12502
rthumb 15.3462 -24.9534
lclavicle 5.02428e-014 1.66979e-014
lhumerus -43.4393 4.48594 83.2476
lradius 18.1136
lwrist 9.91781
lhand -26.4926 -352.221
lfingers 7.12502
lthumb 0.0699364 37.7583
rfemur -56.4723 -47.2641 -7.12039
rtibia 129.5
rfoot 11.8421 28.9271
rtoes 4.37929
lfemur -65.9468 17.9416 6.26643
ltibia 134.954
lfoot 5.26173 -15.5868
ltoes -9.75853
315
root 0.452727 4.44424 20.6799 -248.845 -2.91749 -532.948
lowerback 53.5369 4.61752 13.2029
upperback 23.0924 -1.64921 5.89238
thorax 5.92611 -6.57332 0.343997
lowerneck -5.12889 8.96626 -9.81916
upperneck 3.75537 12.102 -16.3237
head 2.63884 4.74066 -3.30964
rclavicle -1.49089e-014 1.98785e-014
rhumerus -117.334 -46.2002 28.9035
rradius 10.6637
rwrist 47.1073
rhand -10.5721 4.60386
rfingers 7.12502
rthumb 15.4327 -24.8
lclavicle -1.49089e-014 1.98785e-014
lhumerus -43.6117 4.20937 83.3429
lradius 18.2548
lwrist 10.0986
lhand -26.5583 -352.433
lfingers 7.12502
lthumb 0.00647847 37.5465
rfemur -56.1887 -47.4828 -7.556
rtibia 129.782
rfoot 11.5923 29.1903
rtoes 4.03326
lfemur -66.1962 16.8286 5.28905
ltibia 134.333
lfoot 6.30449 -14.395
ltoes -7.80725
